<svg xmlns="http://www.w3.org/2000/svg" width="65.352" height="60.868" viewBox="0 0 65.352 60.868"><defs><style>.a{fill:none;stroke:#a0b3c4;stroke-linecap:round;stroke-linejoin:round;stroke-width:5px;}.b{fill:#a0b3c4;}.c,.d{stroke:none;}.d{fill:#fff;}</style></defs><g transform="translate(-934.24 -458.832)"><g transform="translate(930.74 456.832)"><path class="a" d="M52.52,39.945V34.13A11.63,11.63,0,0,0,40.89,22.5H17.63A11.63,11.63,0,0,0,6,34.13v5.815" transform="translate(0 16.89)"/><path class="a" d="M35.26,16.13A11.63,11.63,0,1,1,23.63,4.5,11.63,11.63,0,0,1,35.26,16.13Z" transform="translate(5.63 0)"/></g><g transform="translate(970.071 481.589)"><g transform="translate(0 0)"><g class="b" transform="translate(-67.457 -11)"><path class="c" d="M 90.85072326660156 47.11103820800781 L 69.58372497558594 47.11103820800781 C 68.46141815185547 47.11103820800781 67.45120239257812 46.69369888305664 66.66230773925781 45.90411758422852 C 65.87396240234375 45.11560821533203 65.45703887939453 44.10567092895508 65.45703887939453 42.98390960693359 L 65.45703887939453 27.84845924377441 C 65.45703887939453 26.72704887390137 65.87401580810547 25.71732902526855 66.66288757324219 24.92842864990234 C 67.13455963134766 24.45635414123535 67.68562316894531 24.11734390258789 68.29265594482422 23.9211540222168 L 68.29265594482422 20.92458915710449 C 68.29265594482422 17.6556396484375 69.46982574462891 14.82073879241943 71.79147338867188 12.49864864349365 C 74.11307525634766 10.17706871032715 76.94786834716797 8.999999046325684 80.21726226806641 8.999999046325684 C 83.48631286621094 8.999999046325684 86.32100677490234 10.1770486831665 88.64259338378906 12.49845886230469 C 89.83648681640625 13.69285869598389 90.56976318359375 14.75464916229248 91.02055358886719 15.94158935546875 C 91.43857574462891 17.04223823547363 91.61692810058594 18.2507495880127 91.61692810058594 19.98252868652344 C 91.61692810058594 20.90094947814941 91.26881408691406 21.73458862304688 90.61022186279297 22.39334869384766 C 89.95388793945312 23.05130004882812 89.11960601806641 23.39989852905273 88.19911193847656 23.39989852905273 L 86.78123474121094 23.39989852905273 C 85.8624267578125 23.39989852905273 85.02951812744141 23.05258560180664 84.37226104736328 22.39548683166504 L 84.37225341796875 22.39548873901367 C 83.73027801513672 21.75529479980469 83.3826904296875 20.94826889038086 83.36420440673828 20.05759048461914 C 83.35855102539062 19.96629333496094 83.35347747802734 19.87809181213379 83.34856414794922 19.7926197052002 C 83.29306793212891 18.82677841186523 83.29200744628906 18.80832862854004 82.81256866455078 18.3288688659668 C 82.07883453369141 17.59515953063965 81.25415802001953 17.25341987609863 80.21726226806641 17.25341987609863 C 79.18011474609375 17.25341987609863 78.35530853271484 17.59515953063965 77.62154388427734 18.32890892028809 C 76.88776397705078 19.06265830993652 76.54601287841797 19.88744926452637 76.54601287841797 20.92458915710449 L 76.54601287841797 23.72209930419922 L 90.85072326660156 23.72209930419922 C 91.97225189208984 23.72209930419922 92.98222351074219 24.13920974731445 93.77144622802734 24.92832946777344 C 94.56073760986328 25.71834945678711 94.97754669189453 26.72783851623535 94.97754669189453 27.84839820861816 L 94.97754669189453 42.98390960693359 C 94.97754669189453 44.10499954223633 94.56074523925781 45.11476898193359 93.77219390869141 45.90406036376953 C 92.98237609863281 46.69389724731445 91.97237396240234 47.11103820800781 90.85072326660156 47.11103820800781 Z M 80.21726226806641 31.89346885681152 C 79.58222198486328 31.89346885681152 79.06558227539062 32.41006851196289 79.06558227539062 33.04504776000977 C 79.06558227539062 33.44266891479492 79.26972198486328 33.80756759643555 79.61166381835938 34.02116775512695 L 80.21701049804688 34.39930725097656 L 80.82330322265625 34.02083969116211 C 81.1649169921875 33.80759048461914 81.36887359619141 33.44276809692383 81.368896484375 33.04494094848633 C 81.368896484375 32.41006851196289 80.85227203369141 31.89346885681152 80.21726226806641 31.89346885681152 Z"/><path class="d" d="M 80.21726226806641 11 C 77.48466491699219 11 75.14769744873047 11.97087097167969 73.20582580566406 13.91272735595703 C 71.26357269287109 15.85535049438477 70.29265594482422 18.1927604675293 70.29265594482422 20.92458724975586 L 70.29265594482422 25.72209930419922 L 69.58372497558594 25.72209930419922 C 68.99288177490234 25.72209930419922 68.490478515625 25.92891883850098 68.07710266113281 26.34262847900391 C 67.66342163085938 26.75632858276367 67.45703887939453 27.25800895690918 67.45703887939453 27.84845924377441 L 67.45703887939453 42.98390960693359 C 67.45703887939453 43.57513046264648 67.66348266601562 44.07678985595703 68.07710266113281 44.49050903320312 C 68.490478515625 44.90422058105469 68.99249267578125 45.11103820800781 69.58372497558594 45.11103820800781 L 90.85072326660156 45.11103820800781 C 91.44110870361328 45.11103820800781 91.94361877441406 44.90422058105469 92.35731506347656 44.49050903320312 C 92.77063751220703 44.07678985595703 92.97754669189453 43.57513046264648 92.97754669189453 42.98390960693359 L 92.97754669189453 27.84839820861816 C 92.97754669189453 27.25838851928711 92.77063751220703 26.75632858276367 92.35731506347656 26.34262847900391 C 91.94361877441406 25.92897987365723 91.44110870361328 25.72209930419922 90.85072326660156 25.72209930419922 L 74.54601287841797 25.72209930419922 L 74.54601287841797 20.92458724975586 C 74.54601287841797 19.35897827148438 75.09978485107422 18.02219009399414 76.20734405517578 16.91468048095703 C 77.31486511230469 15.80717086791992 78.6512451171875 15.25341796875 80.21726226806641 15.25341796875 C 81.78242492675781 15.25341796875 83.11927795410156 15.80717086791992 84.22679138183594 16.91468048095703 C 85.33428192138672 18.02219009399414 85.28009796142578 18.67208099365234 85.36342620849609 19.98252868652344 C 85.36342620849609 20.36684799194336 85.50357818603516 20.69915771484375 85.78450775146484 20.97930908203125 C 86.0650634765625 21.2606086730957 86.39736175537109 21.39989852905273 86.78123474121094 21.39989852905273 L 88.19911193847656 21.39989852905273 C 88.58298492431641 21.39989852905273 88.91522216796875 21.2606086730957 89.19583892822266 20.97930908203125 C 89.47635650634766 20.6987190246582 89.61692810058594 20.36647796630859 89.61692810058594 19.98252868652344 C 89.61692810058594 17.25069808959961 89.17023468017578 15.85535049438477 87.22843170166016 13.91272735595703 C 85.28642272949219 11.97087097167969 82.94939422607422 11 80.21726226806641 11 M 80.36385345458984 41.39707946777344 L 80.07059478759766 41.39707946777344 C 79.23200225830078 41.39707946777344 78.55207824707031 40.71714782714844 78.55207824707031 39.87857818603516 L 78.55207824707031 35.7174186706543 C 77.66063690185547 35.16056823730469 77.06558227539062 34.17350006103516 77.06558227539062 33.04505157470703 C 77.06558227539062 31.30426979064941 78.47683715820312 29.89346885681152 80.21726226806641 29.89346885681152 C 81.9576416015625 29.89346885681152 83.368896484375 31.30471992492676 83.368896484375 33.04505157470703 C 83.36883544921875 34.17386627197266 82.77371215820312 35.1610107421875 81.88236236572266 35.7174186706543 L 81.88236236572266 39.87857818603516 C 81.88236236572266 40.71714782714844 81.20243835449219 41.39707946777344 80.36385345458984 41.39707946777344 M 80.21726226806641 7 C 82.10635375976562 7 83.90180206298828 7.347969055175781 85.55373382568359 8.034248352050781 C 87.20298767089844 8.719409942626953 88.718017578125 9.745559692382812 90.05675506591797 11.08419036865234 C 91.46055603027344 12.48859024047852 92.334228515625 13.76744842529297 92.8902587890625 15.23149871826172 C 93.53059387207031 16.91753005981445 93.61692810058594 18.57931900024414 93.61692810058594 19.98252868652344 C 93.61692810058594 20.74581527709961 93.45793151855469 21.48627853393555 93.15544128417969 22.16666793823242 C 93.90688323974609 22.47037887573242 94.59616088867188 22.9246940612793 95.18557739257812 23.51403045654297 C 96.34166717529297 24.67118835449219 96.97754669189453 26.20996856689453 96.97754669189453 27.84839820861816 L 96.97754669189453 42.98390960693359 C 96.97754669189453 44.64656829833984 96.35842895507812 46.14511871337891 95.18710327148438 47.31756973266602 C 94.03012847900391 48.47457885742188 92.49057769775391 49.11103820800781 90.85072326660156 49.11103820800781 L 69.58372497558594 49.11103820800781 C 67.94293212890625 49.11103820800781 66.40297698974609 48.47417831420898 65.24751281738281 47.31776809692383 C 64.07645416259766 46.14643096923828 63.45703887939453 44.64751815795898 63.45703887939453 42.98390960693359 L 63.45703887939453 27.84845924377441 C 63.45703887939453 26.20888900756836 64.09329223632812 24.66963958740234 65.24860382080078 23.5142707824707 C 65.56897735595703 23.19363784790039 65.91897583007812 22.91298294067383 66.29265594482422 22.67474746704102 L 66.29265594482422 20.92458724975586 C 66.29265594482422 19.03559875488281 66.64065551757812 17.24013900756836 67.32698822021484 15.58810043334961 C 68.01219177246094 13.93874740600586 69.03841400146484 12.42353820800781 70.37712860107422 11.08456802368164 C 71.71611785888672 9.745590209960938 73.23116302490234 8.719398498535156 74.88045501708984 8.03424072265625 C 76.53241729736328 7.347969055175781 78.32797241210938 7 80.21726226806641 7 Z M 81.33868408203125 19.68520736694336 C 81.00497436523438 19.3717155456543 80.69304656982422 19.25341796875 80.21726226806641 19.25341796875 C 79.71296691894531 19.25341796875 79.39274597167969 19.38613891601562 79.03575134277344 19.74311828613281 C 78.67873382568359 20.10012817382812 78.54601287841797 20.42033004760742 78.54601287841797 20.92458724975586 L 78.54601287841797 21.72209930419922 L 81.65036010742188 21.72209930419922 C 81.47870635986328 21.21881866455078 81.38200378417969 20.68892288208008 81.36585235595703 20.14571380615234 C 81.36087036132812 20.06394195556641 81.35629272460938 19.98457717895508 81.35185241699219 19.9073486328125 C 81.34790802001953 19.83860397338867 81.34342193603516 19.76045227050781 81.33868408203125 19.68520736694336 Z"/></g></g></g></g></svg>