<svg xmlns="http://www.w3.org/2000/svg" width="16.75" height="14.656" viewBox="0 0 16.75 14.656"><defs><style>.a{fill:#fff;}</style></defs><path class="a" d="M16.75,5.914v9.422a1.571,1.571,0,0,1-1.57,1.57H1.57A1.571,1.571,0,0,1,0,15.336V5.914a1.571,1.571,0,0,1,1.57-1.57H4.449l.4-1.076A1.568,1.568,0,0,1,6.321,2.25h4.106A1.568,1.568,0,0,1,11.9,3.267L12.3,4.344H15.18A1.571,1.571,0,0,1,16.75,5.914ZM12.3,10.625a3.926,3.926,0,1,0-3.926,3.926A3.929,3.929,0,0,0,12.3,10.625Zm-1.047,0A2.879,2.879,0,1,1,8.375,7.746,2.883,2.883,0,0,1,11.254,10.625Z" transform="translate(0 -2.25)"/></svg>