<svg xmlns="http://www.w3.org/2000/svg" width="19.243" height="13.605" viewBox="0 0 19.243 13.605"><defs><style>.a{fill:#fff;}</style></defs><g transform="translate(-1958.401 -279.278)"><g transform="translate(1958.401 273.64)"><path class="a" d="M18.679,162.478h-.6V150.564a.564.564,0,0,0-.564-.564H15.259a.564.564,0,0,0-.564.564v11.914H13.568v-7.532a.564.564,0,0,0-.564-.564H10.749a.564.564,0,0,0-.564.564v7.532H9.058v-3.021a.564.564,0,0,0-.564-.564H6.239a.564.564,0,0,0-.564.564v3.021H4.548V161.2a.564.564,0,0,0-.564-.564H1.729a.564.564,0,0,0-.564.564v1.277h-.6a.564.564,0,1,0,0,1.128H18.679a.564.564,0,1,0,0-1.128Zm0,0" transform="translate(0 -144.362)"/></g><g transform="translate(1942.137 262.222)"><path class="a" d="M20.456,17.667a3.1,3.1,0,0,0,.04-.4,3.243,3.243,0,0,0-.04-.4l.769-.582a.427.427,0,0,0,.112-.554l-.69-1.195a.427.427,0,0,0-.535-.18l-.885.373a3.171,3.171,0,0,0-.7-.416l-.118-.94A.427.427,0,0,0,17.987,13h-1.38a.427.427,0,0,0-.423.374l-.118.94a3.184,3.184,0,0,0-.7.416l-.885-.373a.426.426,0,0,0-.535.18l-.69,1.195a.427.427,0,0,0,.112.554l.769.582a3.1,3.1,0,0,0-.04.4,3.243,3.243,0,0,0,.04.4l-.769.582a.427.427,0,0,0-.112.554l.69,1.2a.427.427,0,0,0,.535.18l.885-.374a3.171,3.171,0,0,0,.7.416l.118.94a.426.426,0,0,0,.422.374h1.38a.427.427,0,0,0,.423-.374l.118-.94a3.184,3.184,0,0,0,.7-.416l.885.373a.426.426,0,0,0,.535-.18l.69-1.2a.427.427,0,0,0-.112-.554ZM17.3,18.974A1.707,1.707,0,1,1,19,17.267,1.706,1.706,0,0,1,17.3,18.974Z" transform="translate(3.065 4.056)"/></g></g></svg>