<svg xmlns="http://www.w3.org/2000/svg" width="22.545" height="24.128" viewBox="0 0 22.545 24.128"><defs><style>.a,.b{fill:#fff;}.b{stroke-linejoin:bevel;}.c,.d{stroke:none;}.d{fill:#13436b;}</style></defs><g transform="translate(-1948 -477.304)"><g transform="translate(1887 477.304)"><path class="a" d="M71.286,5.736A1.34,1.34,0,0,1,69.948,4.4V0H63.1A2.106,2.106,0,0,0,61,2.1V17.475a2.106,2.106,0,0,0,2.1,2.1H73.81a2.106,2.106,0,0,0,2.1-2.1V5.736ZM63.562,11.28a.574.574,0,0,1,.574-.574h4.413a.574.574,0,0,1,0,1.147H64.136A.574.574,0,0,1,63.562,11.28Zm8.986-3.633a.574.574,0,0,1,0,1.147H64.136a.574.574,0,0,1,0-1.147Z"/><path class="a" d="M325,10.381a.191.191,0,0,0,.191.191h4.371a2.1,2.1,0,0,0-.4-.525l-3.687-3.488A2.109,2.109,0,0,0,325,6.221v4.16Z" transform="translate(-253.905 -5.983)"/></g><g class="b" transform="translate(1945.903 476.578)"><path class="c" d="M 18.9783878326416 24.07875823974609 L 17.31226921081543 24.07875823974609 C 16.66299819946289 24.07875823974609 16.11308860778809 23.59256744384766 16.03311920166016 22.94783782958984 L 15.94295883178711 22.22848129272461 C 15.8698673248291 22.18743705749512 15.79667949676514 22.14355278015137 15.72325897216797 22.09674644470215 L 15.04919815063477 22.38144874572754 C 14.8897180557251 22.44881820678711 14.72119808197021 22.48297882080078 14.54834842681885 22.48297882080078 C 14.0888786315918 22.48297882080078 13.66058826446533 22.23580741882324 13.43061828613281 21.83791923522949 L 12.59688854217529 20.39410781860352 C 12.2724781036377 19.83020782470703 12.41833877563477 19.11083793640137 12.93553829193115 18.71969795227051 L 13.51170253753662 18.2835807800293 C 13.50933742523193 18.2410717010498 13.50795841217041 18.19719886779785 13.50795841217041 18.15187835693359 C 13.50795841217041 18.1066951751709 13.50931262969971 18.06278800964355 13.5116491317749 18.02013778686523 L 12.93526840209961 17.58385848999023 C 12.41748809814453 17.1897087097168 12.27279853820801 16.47039794921875 12.59703826904297 15.90940856933594 L 13.430588722229 14.46691799163818 C 13.6593189239502 14.06937789916992 14.08762836456299 13.8216381072998 14.54766845703125 13.8216381072998 C 14.72071838378906 13.8216381072998 14.8894681930542 13.85585880279541 15.04922866821289 13.92334842681885 L 15.72301959991455 14.20728492736816 C 15.79656219482422 14.16039085388184 15.86981010437012 14.116455078125 15.94294929504395 14.07536506652832 L 16.03324890136719 13.3549280166626 C 16.11308860778809 12.71118831634521 16.66343879699707 12.22499847412109 17.31329917907715 12.22499847412109 L 18.97941780090332 12.22499847412109 C 19.62672805786133 12.22499847412109 20.17691802978516 12.70989799499512 20.25921821594238 13.35291862487793 L 20.34975624084473 14.07527446746826 C 20.4229736328125 14.11638832092285 20.49627304077148 14.16034317016602 20.56981468200684 14.20723438262939 L 21.24409866333008 13.92308807373047 C 21.40298843383789 13.8559684753418 21.57150840759277 13.82180881500244 21.74435806274414 13.82180881500244 C 22.20382881164551 13.82180881500244 22.63211822509766 14.06897830963135 22.86208915710449 14.46684837341309 L 23.69570922851562 15.90944862365723 C 24.0202579498291 16.47350883483887 23.87441825866699 17.19289779663086 23.357177734375 17.58405876159668 L 22.78102111816406 18.02017021179199 C 22.78338813781738 18.06267547607422 22.78476905822754 18.1065616607666 22.78476905822754 18.15187835693359 C 22.78476905822754 18.1970329284668 22.78341484069824 18.24091339111328 22.78108215332031 18.28353691101074 L 23.35630798339844 18.71878814697266 C 23.87418937683105 19.11298751831055 24.01888847351074 19.83230781555176 23.69465827941895 20.39331817626953 L 22.86121940612793 21.83662796020508 C 22.63238906860352 22.2343692779541 22.20406913757324 22.48211860656738 21.74402809143066 22.48211860656738 C 21.57097816467285 22.48211860656738 21.40222930908203 22.44789886474609 21.24245834350586 22.38040924072266 L 20.56866836547852 22.09647178649902 C 20.49512481689453 22.14336585998535 20.42187690734863 22.18730163574219 20.3487377166748 22.22839164733887 L 20.25843811035156 22.94882774353027 C 20.17862892150879 23.59255790710449 19.62826919555664 24.07875823974609 18.9783878326416 24.07875823974609 Z M 18.14584922790527 16.86612892150879 C 17.4368782043457 16.86612892150879 16.86008834838867 17.44291877746582 16.86008834838867 18.15187835693359 C 16.86008834838867 18.86083793640137 17.4368782043457 19.4376277923584 18.14584922790527 19.4376277923584 C 18.85480880737305 19.4376277923584 19.43159866333008 18.86083793640137 19.43159866333008 18.15187835693359 C 19.43159866333008 17.44291877746582 18.85480880737305 16.86612892150879 18.14584922790527 16.86612892150879 Z"/><path class="d" d="M 18.9783878326416 23.30375862121582 C 19.2380485534668 23.30375862121582 19.45751762390137 23.11004829406738 19.48945808410645 22.85244750976562 L 19.63164901733398 21.71800804138184 C 19.93766784667969 21.59023857116699 20.21587944030762 21.41404914855957 20.47552871704102 21.21621894836426 L 21.54402923583984 21.66648864746094 C 21.7830696105957 21.76746940612793 22.06024932861328 21.67473983764648 22.19007873535156 21.44907760620117 L 23.02365875244141 20.00552749633789 C 23.15347862243652 19.78089904785156 23.09578895568848 19.49445915222168 22.8886775970459 19.3368091583252 L 21.96133804321289 18.63512802124023 C 21.9819393157959 18.47541809082031 22.00976943969727 18.31673812866211 22.00976943969727 18.15187835693359 C 22.00976943969727 17.98598861694336 21.98090934753418 17.82833862304688 21.96133804321289 17.66862869262695 L 22.88970756530762 16.96591758728027 C 23.09680938720703 16.80929756164551 23.15451812744141 16.52284812927246 23.02468872070312 16.29720878601074 L 22.19110870361328 14.8546781539917 C 22.061279296875 14.6300573348999 21.78410911560059 14.53629302978516 21.54505920410156 14.63726806640625 L 20.47655868530273 15.08753871917725 C 20.21587944030762 14.88867855072021 19.93869781494141 14.7135181427002 19.6326789855957 14.58574867248535 L 19.49048805236816 13.45130825042725 C 19.45751762390137 13.1937084197998 19.23907852172852 12.99999809265137 18.97941780090332 12.99999809265137 L 17.31329917907715 12.99999809265137 C 17.05364799499512 12.99999809265137 16.83417892456055 13.1937084197998 16.8022289276123 13.45130825042725 L 16.66003799438477 14.58574867248535 C 16.35401916503906 14.7135181427002 16.07580757141113 14.88970851898193 15.81615829467773 15.08753871917725 L 14.74765872955322 14.63726806640625 C 14.50860595703125 14.53629016876221 14.23143863677979 14.62902927398682 14.10160827636719 14.8546781539917 L 13.26802825927734 16.29720878601074 C 13.13820838928223 16.52182769775391 13.19590854644775 16.80826759338379 13.40300846099854 16.96591758728027 L 14.33137893676758 17.66862869262695 C 14.31077861785889 17.82833862304688 14.28295803070068 17.98700904846191 14.28295803070068 18.15187835693359 C 14.28295803070068 18.31776809692383 14.31180858612061 18.47541809082031 14.33137893676758 18.63512802124023 L 13.40300846099854 19.33783912658691 C 13.19590854644775 19.49445915222168 13.13820838928223 19.78089904785156 13.26802825927734 20.00655746459961 L 14.10160827636719 21.45010757446289 C 14.23143768310547 21.67473983764648 14.50861072540283 21.76849365234375 14.74765872955322 21.66751861572266 L 15.81615829467773 21.21621894836426 C 16.07684898376465 21.41507911682129 16.35401916503906 21.59024810791016 16.66003799438477 21.71800804138184 L 16.8022289276123 22.85244750976562 C 16.83417892456055 23.11004829406738 17.0526180267334 23.30375862121582 17.31226921081543 23.30375862121582 L 18.9783878326416 23.30375862121582 M 18.14584922790527 16.09112930297852 C 19.28440856933594 16.09112930297852 20.20659828186035 17.01331901550293 20.20659828186035 18.15187835693359 C 20.20659828186035 19.29044914245605 19.28440856933594 20.21262741088867 18.14584922790527 20.21262741088867 C 17.00727844238281 20.21262741088867 16.0850887298584 19.29044914245605 16.0850887298584 18.15187835693359 C 16.0850887298584 17.01331901550293 17.00727844238281 16.09112930297852 18.14584922790527 16.09112930297852 M 18.9783878326416 24.85375785827637 L 17.31226921081543 24.85375785827637 C 16.30031967163086 24.85375785827637 15.43913459777832 24.11642074584961 15.27586650848389 23.12532424926758 C 15.04276943206787 23.21338653564453 14.79842376708984 23.25797843933105 14.54834842681885 23.25797843933105 C 13.81303882598877 23.25797843933105 13.12764835357666 22.86244773864746 12.75963878631592 22.22575759887695 L 11.92574882507324 20.78165817260742 C 11.41999435424805 19.90254020690918 11.62836170196533 18.78772926330566 12.40434074401855 18.15174102783203 C 11.62692546844482 17.51122093200684 11.42050838470459 16.39629173278809 11.92603874206543 15.52159881591797 L 12.7595682144165 14.07916831970215 C 13.12546825408936 13.44323825836182 13.81117820739746 13.04663848876953 14.54766845703125 13.04663848876953 C 14.79785919189453 13.04663848876953 15.0423583984375 13.09125709533691 15.27563381195068 13.17937088012695 C 15.43754100799561 12.1887035369873 16.29983139038086 11.4499979019165 17.31329917907715 11.4499979019165 L 18.97941780090332 11.4499979019165 C 19.99023818969727 11.4499979019165 20.85306549072266 12.18820381164551 21.01693153381348 13.17938995361328 C 21.24939155578613 13.09150695800781 21.4940128326416 13.04680824279785 21.74435806274414 13.04680824279785 C 22.47966766357422 13.04680824279785 23.16506767272949 13.44233798980713 23.53307914733887 14.07902812957764 L 24.36672782897949 15.52169799804688 C 24.87271308898926 16.40107345581055 24.66439247131348 17.5158748626709 23.88847923278809 18.15192985534668 C 24.66499900817871 18.79273414611816 24.87089347839355 19.90688896179199 24.36565780639648 20.78110885620117 L 23.53235816955566 22.22417831420898 C 23.16626930236816 22.86049842834473 22.48054885864258 23.25711822509766 21.74402809143066 23.25711822509766 C 21.49385070800781 23.25711822509766 21.24935150146484 23.21249771118164 21.01605606079102 23.1243896484375 C 20.85419464111328 24.11503982543945 19.99189376831055 24.85375785827637 18.9783878326416 24.85375785827637 Z M 18.14584922790527 17.64112854003906 C 17.86421775817871 17.64112854003906 17.63508796691895 17.87024879455566 17.63508796691895 18.15187835693359 C 17.63508796691895 18.43350791931152 17.86421775817871 18.66262817382812 18.14584922790527 18.66262817382812 C 18.4274787902832 18.66262817382812 18.6565990447998 18.43350791931152 18.6565990447998 18.15187835693359 C 18.6565990447998 17.87024879455566 18.4274787902832 17.64112854003906 18.14584922790527 17.64112854003906 Z"/></g></g></svg>