<svg xmlns="http://www.w3.org/2000/svg" width="60.221" height="80.036" viewBox="0 0 60.221 80.036"><defs><style>.a{fill:#a0b3c4;stroke:#fff;stroke-width:0.55px;}</style></defs><g transform="translate(-63.543 0.275)"><path class="a" d="M119.076,25.463c-4.568.025-10.038-.015-17.947.055s-14.405,0-14.405,0L103.188,9.054a2.329,2.329,0,0,0,0-3.293L99.016,1.589a5.44,5.44,0,0,0-7.685,0l-4.29,4.29-2.2-2.2a6.217,6.217,0,0,0-8.783,0L67.5,12.246a6.218,6.218,0,0,0,0,8.783l2.2,2.2-4.29,4.29a5.44,5.44,0,0,0,0,7.685l4.172,4.172a2.329,2.329,0,0,0,3.293,0l5.9-5.9V69.394A10.1,10.1,0,0,0,88.866,79.486H113.4a10.1,10.1,0,0,0,10.092-10.092V30C123.489,27.349,123.644,25.439,119.076,25.463ZM70.794,15.539l8.563-8.563a1.555,1.555,0,0,1,2.2,0l2.2,2.2L72.99,19.931l-2.2-2.2A1.555,1.555,0,0,1,70.794,15.539Zm.431,18.891L68.7,31.905a.777.777,0,0,1,0-1.1L94.625,4.882a.777.777,0,0,1,1.1,0l2.525,2.525Zm47.606,34.964a5.44,5.44,0,0,1-5.434,5.434H88.866a5.44,5.44,0,0,1-5.434-5.434V30.176h35.4Z" transform="translate(0)"/><path class="a" d="M224.76,265.92a2.329,2.329,0,0,0,2.329-2.329V235.707a2.329,2.329,0,1,0-4.657,0v27.885A2.329,2.329,0,0,0,224.76,265.92Z" transform="translate(-133.989 -197.147)"/><path class="a" d="M291.5,265.92a2.329,2.329,0,0,0,2.329-2.329V235.707a2.329,2.329,0,1,0-4.657,0v27.885A2.329,2.329,0,0,0,291.5,265.92Z" transform="translate(-190.369 -197.147)"/><path class="a" d="M358.241,265.92a2.329,2.329,0,0,0,2.329-2.329V235.707a2.329,2.329,0,1,0-4.657,0v27.885A2.329,2.329,0,0,0,358.241,265.92Z" transform="translate(-246.748 -197.147)"/></g></svg>