<svg xmlns="http://www.w3.org/2000/svg" width="14.762" height="19.276" viewBox="0 0 14.762 19.276"><defs><style>.a{fill:#a62626;}</style></defs><path class="a" d="M6.99,13.091H2.884a2.008,2.008,0,0,1-2-1.843L.41,5.457h0L0,.421C0,.41,0,.4,0,.389A.389.389,0,0,1,.389,0H11.868a.389.389,0,0,1,.389.389q0,.016,0,.032l-.409,5.036h0l-.47,5.791a2.008,2.008,0,0,1-2,1.843Z" transform="translate(1.252 6.185)"/><path class="a" d="M91.366,1.344h2.026a1.041,1.041,0,0,1,1.041,1h1.344A2.386,2.386,0,0,0,93.392,0H91.366A2.386,2.386,0,0,0,88.98,2.344h1.344A1.041,1.041,0,0,1,91.366,1.344Zm0,0" transform="translate(-84.998 0)"/><path class="a" d="M14.759,84.848l-.227-1.359A1.3,1.3,0,0,0,13.248,82.4H1.517A1.3,1.3,0,0,0,.233,83.489L.006,84.848a.333.333,0,0,0,.329.388h14.1a.333.333,0,0,0,.329-.388Zm0,0" transform="translate(-0.001 -80.058)"/></svg>