<svg xmlns="http://www.w3.org/2000/svg" width="19.701" height="12.701" viewBox="0 0 19.701 12.701"><defs><style>.a{fill:#fff;}</style></defs><path class="a" d="M10.85,6.193a8.808,8.808,0,0,1,7.9,4.657,8.8,8.8,0,0,1-7.9,4.657,8.8,8.8,0,0,1-7.9-4.657,8.808,8.808,0,0,1,7.9-4.657m0-1.693A10.6,10.6,0,0,0,1,10.85a10.6,10.6,0,0,0,9.85,6.35,10.6,10.6,0,0,0,9.85-6.35A10.6,10.6,0,0,0,10.85,4.5Zm0,4.234a2.181,2.181,0,0,1,2.239,2.117,2.181,2.181,0,0,1-2.239,2.117A2.181,2.181,0,0,1,8.612,10.85,2.181,2.181,0,0,1,10.85,8.734m0-1.693a3.93,3.93,0,0,0-4.03,3.81,3.93,3.93,0,0,0,4.03,3.81,3.93,3.93,0,0,0,4.03-3.81A3.93,3.93,0,0,0,10.85,7.04Z" transform="translate(-1 -4.5)"/></svg>