<svg xmlns="http://www.w3.org/2000/svg" width="15.28" height="20.425" viewBox="0 0 15.28 20.425"><defs><style>.a{fill:#ff5d5d;}</style></defs><g transform="translate(-1722.06 -263)"><g transform="translate(1750.081 247.935)"><path class="a" d="M-26.761,23.87a.185.185,0,0,0-.07.02.2.2,0,0,1,.08-.01h.43v-.01Zm1.14-5.67a5.832,5.832,0,0,1,1.03-1.39A4.235,4.235,0,0,0-25.621,18.2Zm7.1,10.31a.425.425,0,0,0,.02-.11v-.11A1.635,1.635,0,0,1-18.521,28.51Z"/><path class="a" d="M-13.111,24.25a1.244,1.244,0,0,0-.32-.23.379.379,0,0,0-.13-.06.937.937,0,0,0-.37-.07.2.2,0,0,0-.08-.01h-.43V21a5.829,5.829,0,0,0-.64-2.66c-.02-.05-.04-.09-.06-.13a6.137,6.137,0,0,0-1.04-1.4,6.235,6.235,0,0,0-1.43-1.06c-.17-.09-.35-.17-.53-.25h-.01a5.173,5.173,0,0,0-1.1-.33,6.187,6.187,0,0,0-2.27,0,5.544,5.544,0,0,0-1.1.33,5.938,5.938,0,0,0-1.96,1.3l-.01.01a5.832,5.832,0,0,0-1.03,1.39.573.573,0,0,0-.04.07,5.977,5.977,0,0,0-.66,2.73v2.88h-.43a.2.2,0,0,0-.08.01h-.01a.857.857,0,0,0-.36.07.31.31,0,0,0-.13.06,1.244,1.244,0,0,0-.32.23,1.27,1.27,0,0,0-.37.9v9.07a1.272,1.272,0,0,0,1.27,1.27H-14a1.136,1.136,0,0,0,.49-.11,1.391,1.391,0,0,0,.38-.25,1.276,1.276,0,0,0,.39-.92V25.14A1.246,1.246,0,0,0-13.111,24.25ZM-18.5,28.4a.425.425,0,0,1-.02.11,2,2,0,0,1-.05.26,1.464,1.464,0,0,1-.21.48,1.7,1.7,0,0,1-.15.22l-.12.12a2.158,2.158,0,0,1-.33.27v2.49a.913.913,0,0,1-.91.91h-.18a.892.892,0,0,1-.64-.27.787.787,0,0,1-.2-.29.812.812,0,0,1-.07-.35V29.86a1.7,1.7,0,0,1-.33-.27l-.12-.12c-.05-.07-.1-.14-.15-.22s-.08-.14-.12-.22a2.377,2.377,0,0,1-.15-.52,1.942,1.942,0,0,1-.02-.24v-.03a1.942,1.942,0,0,1,.02-.24,1.981,1.981,0,0,1,.08-.33.578.578,0,0,1,.06-.17,1.415,1.415,0,0,1,.13-.24.951.951,0,0,1,.15-.2.9.9,0,0,1,.16-.18.962.962,0,0,1,.22-.18c.02-.02.05-.03.07-.05a.467.467,0,0,1,.1-.05,1.512,1.512,0,0,1,.64-.21,2.462,2.462,0,0,1,.26-.02,1.948,1.948,0,0,1,.25.02,1.156,1.156,0,0,1,.31.07.731.731,0,0,1,.19.07.993.993,0,0,1,.27.14,1.092,1.092,0,0,1,.17.13,1.281,1.281,0,0,1,.26.26,1.092,1.092,0,0,1,.13.17c.01.01.01.02.02.03a.879.879,0,0,1,.06.1,1.894,1.894,0,0,1,.09.21,1.62,1.62,0,0,1,.12.43v.02a2.437,2.437,0,0,1,.01.27Zm1.52-4.53h-6.8V21a3.283,3.283,0,0,1,.69-2.04l.09-.12a1.256,1.256,0,0,1,.22-.24,2.048,2.048,0,0,1,.36-.3,2.441,2.441,0,0,1,.43-.28,3.256,3.256,0,0,1,1.6-.41,3.427,3.427,0,0,1,2.41.99c.07.07.14.15.21.23a.763.763,0,0,1,.08.11,3.357,3.357,0,0,1,.71,2.06Z"/></g></g></svg>