<svg xmlns="http://www.w3.org/2000/svg" width="13.104" height="17.472" viewBox="0 0 13.104 17.472"><defs><style>.a{fill:#6b8091;}</style></defs><path class="a" d="M76.74,6.552H75.648V5.1a5.1,5.1,0,0,0-10.192,0V6.552H64.364A.364.364,0,0,0,64,6.916v9.1a1.457,1.457,0,0,0,1.456,1.456H75.648A1.457,1.457,0,0,0,77.1,16.016v-9.1A.364.364,0,0,0,76.74,6.552Zm-5.1,7.6a.364.364,0,0,1-.362.4H69.824a.364.364,0,0,1-.362-.4l.23-2.065a1.44,1.44,0,0,1-.6-1.171,1.456,1.456,0,1,1,2.912,0,1.44,1.44,0,0,1-.6,1.171Zm1.822-7.6H67.64V5.1a2.912,2.912,0,1,1,5.824,0Z" transform="translate(-64)"/></svg>