<svg xmlns="http://www.w3.org/2000/svg" width="18.017" height="18.016" viewBox="0 0 18.017 18.016"><defs><style>.a{fill:#f53649;}</style></defs><g transform="translate(18.017 18.016) rotate(180)"><path class="a" d="M8.257,11.26a2.252,2.252,0,1,1,0-4.5h3.753V2.064A2.066,2.066,0,0,0,9.947,0H2.064A2.066,2.066,0,0,0,0,2.064V15.952a2.066,2.066,0,0,0,2.064,2.064H9.947a2.066,2.066,0,0,0,2.064-2.064V11.26Z"/><path class="a" d="M16.469,14.45a.752.752,0,0,1-.463-.694V11.5H10.751a.751.751,0,1,1,0-1.5h5.255V7.751a.75.75,0,0,1,1.281-.531l3,3a.75.75,0,0,1,0,1.061l-3,3A.751.751,0,0,1,16.469,14.45Z" transform="translate(-2.493 -1.745)"/></g></svg>