<svg xmlns="http://www.w3.org/2000/svg" width="224.365" height="240.785" viewBox="0 0 224.365 240.785"><defs><style>.a{fill:#404041;}.b{fill:#26a69a;}</style></defs><g transform="translate(-10.899 -117.059)"><g transform="translate(29.012 117.059)"><path class="a" d="M101.235,194.029h22.635L88.811,140.951l-59.8,90.568H51.361L71.59,200.846l9.609-14.37,7.612-11.458,2.537,3.909,5.709,8.646Z" transform="translate(-29.012 -112.6)"/><path class="b" d="M176.278,125.71l-55.63,84.127-5.187-7.853H92.794l27.622,42.692L198.573,125.71Z" transform="translate(-17.108 -115.444)"/><path class="b" d="M185.955,117.059l8.257,24.644-42.3-20.314Z" transform="translate(-6.074 -117.059)"/></g><g transform="translate(10.899 296.006)"><path class="b" d="M213.96,146.99h11.382l14.635,41.316,14.846-41.316h11.369l-20.957,58.162H234.56Z" transform="translate(-213.96 -144.42)"/><path class="b" d="M269.085,144.824a6.6,6.6,0,0,1,4.869,2.056,6.824,6.824,0,0,1,2.032,4.981,6.744,6.744,0,0,1-2.011,4.921,6.52,6.52,0,0,1-4.811,2.037,6.614,6.614,0,0,1-4.908-2.075,6.941,6.941,0,0,1-2.03-5.041,6.873,6.873,0,0,1,6.86-6.88Zm-5.4,17.714h10.794v43.018H263.688Z" transform="translate(-204.952 -144.824)"/><path class="b" d="M307.686,165.934,301,172.617q-4.074-4.032-7.4-4.033a4.641,4.641,0,0,0-2.846.771,2.315,2.315,0,0,0-1.029,1.916,2.357,2.357,0,0,0,.653,1.6,12.137,12.137,0,0,0,3.222,2l3.954,1.978q6.248,3.083,8.581,6.286a13.1,13.1,0,0,1-1.878,17.082q-4.21,3.832-11.288,3.834a17.941,17.941,0,0,1-15.024-7.354l6.642-7.235a15.347,15.347,0,0,0,4.449,3.577,9.825,9.825,0,0,0,4.527,1.365,5.389,5.389,0,0,0,3.44-1.029A2.976,2.976,0,0,0,298.315,191q0-2.492-4.706-4.864l-3.637-1.819q-10.437-5.256-10.438-13.166a11.419,11.419,0,0,1,3.934-8.718,14.28,14.28,0,0,1,10.063-3.617,17.455,17.455,0,0,1,14.156,7.115Z" transform="translate(-202.017 -142.212)"/><path class="b" d="M315.466,144.824a6.594,6.594,0,0,1,4.869,2.056,6.824,6.824,0,0,1,2.032,4.981,6.744,6.744,0,0,1-2.011,4.921,6.515,6.515,0,0,1-4.809,2.037,6.615,6.615,0,0,1-4.909-2.075,6.941,6.941,0,0,1-2.03-5.041,6.873,6.873,0,0,1,6.86-6.88Zm-5.4,17.714h10.794v43.018H310.069Z" transform="translate(-196.295 -144.824)"/><path class="b" d="M347.734,158.819a22.811,22.811,0,0,1,11.446,3.044A22.327,22.327,0,0,1,370.547,181.4a22.6,22.6,0,0,1-3.025,11.386,21.836,21.836,0,0,1-8.244,8.284,22.768,22.768,0,0,1-11.507,2.984,21.456,21.456,0,0,1-15.8-6.582,22.8,22.8,0,0,1,.851-32.8A21.6,21.6,0,0,1,347.734,158.819Zm.178,10.161a11.107,11.107,0,0,0-8.378,3.5,12.42,12.42,0,0,0-3.346,8.954,12.649,12.649,0,0,0,3.307,9.094,11.058,11.058,0,0,0,8.376,3.479,11.18,11.18,0,0,0,8.436-3.52,13.872,13.872,0,0,0,.059-18.049A11.188,11.188,0,0,0,347.912,168.98Z" transform="translate(-193.155 -142.212)"/><path class="b" d="M370.882,159.926h10.794v4.407a25.861,25.861,0,0,1,6.653-4.305,16.073,16.073,0,0,1,6.1-1.209,14.768,14.768,0,0,1,10.857,4.468q3.752,3.793,3.751,11.228v28.429H398.362V184.106q0-7.7-.692-10.23a7,7,0,0,0-2.405-3.851,6.738,6.738,0,0,0-4.24-1.323,7.945,7.945,0,0,0-5.621,2.192,11.716,11.716,0,0,0-3.255,6.063,49.006,49.006,0,0,0-.474,8.728v17.26H370.882Z" transform="translate(-184.672 -142.212)"/></g></g></svg>