<svg xmlns="http://www.w3.org/2000/svg" width="24.707" height="15.928" viewBox="0 0 24.707 15.928">
  <path id="Path_3529" data-name="Path 3529" d="M13.354,6.624a11.047,11.047,0,0,1,9.905,5.84,11.034,11.034,0,0,1-9.905,5.84,11.034,11.034,0,0,1-9.905-5.84,11.047,11.047,0,0,1,9.905-5.84m0-2.124A13.289,13.289,0,0,0,1,12.464a13.289,13.289,0,0,0,12.354,7.964,13.289,13.289,0,0,0,12.354-7.964A13.289,13.289,0,0,0,13.354,4.5Zm0,5.309a2.735,2.735,0,0,1,2.808,2.655,2.735,2.735,0,0,1-2.808,2.655,2.735,2.735,0,0,1-2.808-2.655,2.735,2.735,0,0,1,2.808-2.655m0-2.124A4.929,4.929,0,0,0,8.3,12.464a4.929,4.929,0,0,0,5.054,4.778,4.929,4.929,0,0,0,5.054-4.778A4.929,4.929,0,0,0,13.354,7.686Z" transform="translate(-1 -4.5)" fill="#a0b3c4"/>
</svg>
