<svg xmlns="http://www.w3.org/2000/svg" width="20.165" height="13.86" viewBox="0 0 20.165 13.86"><defs><style>.a{fill:#fff;}</style></defs><g transform="translate(0 0)"><g transform="translate(0 0)"><path class="a" d="M14.469,129.252v-1.26H1.26A1.262,1.262,0,0,0,0,129.252v2.52H12.976C12.8,131,14.469,130.173,14.469,129.252Z" transform="translate(0 -127.992)"/></g></g><g transform="translate(0 6.3)"><path class="a" d="M19.606,287.992H0v6.3a1.261,1.261,0,0,0,1.26,1.26H18.9a1.26,1.26,0,0,0,1.26-1.26s.013-4.725,0-6.3A5.231,5.231,0,0,1,19.606,287.992ZM5.67,291.772H3.15a.63.63,0,1,1,0-1.26H5.67a.63.63,0,1,1,0,1.26Z" transform="translate(0 -287.992)"/></g></svg>