<svg xmlns="http://www.w3.org/2000/svg" width="13.555" height="13.552" viewBox="0 0 13.555 13.552"><defs><style>.a{fill:#26a69a;}</style></defs><g transform="translate(-2 -5)"><path class="a" d="M13.93,2.715l2.939,2.939a.319.319,0,0,1,0,.45L9.752,13.219l-3.024.336a.634.634,0,0,1-.7-.7l.336-3.024L13.48,2.715A.319.319,0,0,1,13.93,2.715Zm5.278-.746L17.618.378a1.274,1.274,0,0,0-1.8,0L14.666,1.532a.319.319,0,0,0,0,.45L17.6,4.921a.319.319,0,0,0,.45,0l1.153-1.153a1.274,1.274,0,0,0,0-1.8Z" transform="translate(-4.024 4.993)"/></g></svg>