<svg xmlns="http://www.w3.org/2000/svg" width="183.793" height="53.515" viewBox="0 0 183.793 53.515"><defs><style>.a{fill:#404041;}.b{fill:#26a69a;}</style></defs><g transform="translate(-29.012 -117.059)"><g transform="translate(29.012 117.059)"><path class="a" d="M58.92,162.931h9.373l-14.518-21.98-24.763,37.5h9.255l8.377-12.7,3.979-5.951,3.152-4.745,1.051,1.619,2.364,3.58Z" transform="translate(-29.012 -129.21)"/><path class="b" d="M127.365,125.71l-23.037,34.838-2.148-3.252H92.794l11.439,17.679L136.6,125.71Z" transform="translate(-61.452 -121.459)"/><path class="b" d="M166.011,117.059l3.419,10.205-17.516-8.412Z" transform="translate(-91.521 -117.059)"/></g><g transform="translate(119.894 130.702)"><path class="b" d="M213.96,146.99h4.713l6.06,17.109,6.148-17.109h4.708l-8.679,24.085h-4.421Z" transform="translate(-213.96 -145.926)"/><path class="b" d="M265.066,144.824a2.731,2.731,0,0,1,2.016.852,2.826,2.826,0,0,1,.841,2.063,2.792,2.792,0,0,1-.833,2.038,2.7,2.7,0,0,1-1.992.844,2.739,2.739,0,0,1-2.032-.859,2.874,2.874,0,0,1-.841-2.087,2.846,2.846,0,0,1,2.841-2.849Zm-2.235,7.336h4.47v17.814h-4.47Z" transform="translate(-238.508 -144.824)"/><path class="b" d="M290.265,161.765l-2.767,2.768a4.684,4.684,0,0,0-3.062-1.67,1.922,1.922,0,0,0-1.178.319.959.959,0,0,0-.426.794.976.976,0,0,0,.27.663,5.026,5.026,0,0,0,1.334.827l1.637.819a9.649,9.649,0,0,1,3.553,2.6,5.423,5.423,0,0,1-.778,7.074,6.678,6.678,0,0,1-4.675,1.588,7.43,7.43,0,0,1-6.222-3.045l2.75-3a6.354,6.354,0,0,0,1.842,1.481,4.068,4.068,0,0,0,1.875.565,2.232,2.232,0,0,0,1.425-.426,1.232,1.232,0,0,0,.54-.982q0-1.032-1.949-2.014l-1.506-.753q-4.322-2.177-4.322-5.452a4.729,4.729,0,0,1,1.629-3.61,5.913,5.913,0,0,1,4.167-1.5,7.228,7.228,0,0,1,5.862,2.946Z" transform="translate(-246.507 -151.942)"/><path class="b" d="M311.447,144.824a2.731,2.731,0,0,1,2.016.852,2.826,2.826,0,0,1,.841,2.063,2.792,2.792,0,0,1-.833,2.038,2.7,2.7,0,0,1-1.992.844,2.739,2.739,0,0,1-2.033-.859,2.874,2.874,0,0,1-.841-2.087,2.846,2.846,0,0,1,2.841-2.849Zm-2.235,7.336h4.47v17.814h-4.47Z" transform="translate(-262.098 -144.824)"/><path class="b" d="M334.667,158.819a9.446,9.446,0,0,1,4.74,1.26,9.245,9.245,0,0,1,4.707,8.089,9.357,9.357,0,0,1-1.253,4.715,9.042,9.042,0,0,1-3.414,3.43,9.428,9.428,0,0,1-4.765,1.236,8.885,8.885,0,0,1-6.541-2.726,9.443,9.443,0,0,1,.352-13.582A8.943,8.943,0,0,1,334.667,158.819Zm.074,4.208a4.6,4.6,0,0,0-3.469,1.449,5.143,5.143,0,0,0-1.386,3.708,5.238,5.238,0,0,0,1.37,3.766,4.579,4.579,0,0,0,3.469,1.441,4.63,4.63,0,0,0,3.493-1.457,5.745,5.745,0,0,0,.025-7.474A4.633,4.633,0,0,0,334.741,163.027Z" transform="translate(-270.655 -151.942)"/><path class="b" d="M370.882,159.277h4.47V161.1a10.71,10.71,0,0,1,2.755-1.783,6.656,6.656,0,0,1,2.526-.5,6.115,6.115,0,0,1,4.5,1.85,6.349,6.349,0,0,1,1.553,4.65v11.773h-4.421v-7.8a19.722,19.722,0,0,0-.286-4.236,2.9,2.9,0,0,0-1-1.595,2.79,2.79,0,0,0-1.756-.548,3.29,3.29,0,0,0-2.328.908,4.852,4.852,0,0,0-1.348,2.511,20.3,20.3,0,0,0-.2,3.614v7.147h-4.47Z" transform="translate(-293.772 -151.942)"/></g></g></svg>