<svg xmlns="http://www.w3.org/2000/svg" width="19" height="19" viewBox="0 0 19 19"><defs><style>.a{fill:#fff;}</style></defs><path class="a" d="M18.738,10.048H17.381V6.429a1.815,1.815,0,0,0-1.81-1.81H11.952V3.262a2.262,2.262,0,1,0-4.524,0V4.619H3.81a1.807,1.807,0,0,0-1.8,1.81V9.867H3.357a2.443,2.443,0,1,1,0,4.886H2V18.19A1.815,1.815,0,0,0,3.81,20H7.248V18.643a2.443,2.443,0,1,1,4.886,0V20h3.438a1.815,1.815,0,0,0,1.81-1.81V14.571h1.357a2.262,2.262,0,1,0,0-4.524Z" transform="translate(-2 -1)"/></svg>