<svg xmlns="http://www.w3.org/2000/svg" width="15.282" height="20.426" viewBox="0 0 15.282 20.426"><defs><style>.a{fill:#a0b3c4;}</style></defs><g transform="translate(0 0)"><path class="a" d="M81.465,19.816H71.7V16.943a3.4,3.4,0,0,1,5.8-2.4,2.186,2.186,0,0,1,.681,1.837.861.861,0,0,0,.849.849h.849a.861.861,0,0,0,.849-.849,4.287,4.287,0,0,0-1.43-3.635,5.943,5.943,0,0,0-10.141,4.2v2.873h-.425a1.268,1.268,0,0,0-1.273,1.273v9.063a1.268,1.268,0,0,0,1.273,1.274H81.465a1.268,1.268,0,0,0,1.274-1.274V21.089a1.268,1.268,0,0,0-1.274-1.273ZM76.1,25.8v2.492a.909.909,0,0,1-.909.909H75.01a.909.909,0,0,1-.909-.909V25.8a1.887,1.887,0,1,1,1.994,0Z" transform="translate(-67.457 -11)"/></g></svg>