<svg xmlns="http://www.w3.org/2000/svg" width="19.459" height="20" viewBox="0 0 19.459 20"><defs><style>.a{fill:#fff;}</style></defs><g transform="translate(0 0.41)"><circle class="a" cx="4.5" cy="4.5" r="4.5" transform="translate(3 -0.41)"/><path class="a" d="M9.843,19.51a2.139,2.139,0,0,1,.173-2.39,2.139,2.139,0,0,1-.173-2.389l.69-1.195a2.14,2.14,0,0,1,1.848-1.067,2.173,2.173,0,0,1,.308.022,2.216,2.216,0,0,1,.1-.2A4.025,4.025,0,0,0,11.307,12H4.054A4.058,4.058,0,0,0,0,16.054V19.04a.64.64,0,0,0,.64.64h9.3Z" transform="translate(0 -1.798)"/><path class="a" d="M20.456,17.667a3.1,3.1,0,0,0,.04-.4,3.243,3.243,0,0,0-.04-.4l.769-.582a.427.427,0,0,0,.112-.554l-.69-1.195a.427.427,0,0,0-.535-.18l-.885.373a3.171,3.171,0,0,0-.7-.416l-.118-.94A.427.427,0,0,0,17.987,13h-1.38a.427.427,0,0,0-.423.374l-.118.94a3.184,3.184,0,0,0-.7.416l-.885-.373a.426.426,0,0,0-.535.18l-.69,1.195a.427.427,0,0,0,.112.554l.769.582a3.1,3.1,0,0,0-.04.4,3.243,3.243,0,0,0,.04.4l-.769.582a.427.427,0,0,0-.112.554l.69,1.2a.427.427,0,0,0,.535.18l.885-.374a3.171,3.171,0,0,0,.7.416l.118.94a.426.426,0,0,0,.422.374h1.38a.427.427,0,0,0,.423-.374l.118-.94a3.184,3.184,0,0,0,.7-.416l.885.373a.426.426,0,0,0,.535-.18l.69-1.2a.427.427,0,0,0-.112-.554ZM17.3,18.974A1.707,1.707,0,1,1,19,17.267,1.706,1.706,0,0,1,17.3,18.974Z" transform="translate(-1.935 -1.944)"/></g></svg>